<?xml version="1.0" encoding="utf-8"?>
<!-- Generator: Adobe Illustrator 26.1.0, SVG Export Plug-In . SVG Version: 6.00 Build 0)  -->
<svg version="1.1" id="Layer_1" xmlns="http://www.w3.org/2000/svg" xmlns:xlink="http://www.w3.org/1999/xlink" x="0px" y="0px"
	 viewBox="0 0 595.28 841.89" style="enable-background:new 0 0 595.28 841.89;" xml:space="preserve">
<style type="text/css">
	.st0{fill:#272E69;}
</style>
<g>
	<g>
		<path class="st0" d="M71.29,478.61c25.48,0,50.32-0.98,75.04,0.29c22.89,1.18,33.43,11.97,36.55,34.39
			c0.96,6.91,0.72,14.12,0.01,21.09c-1.87,18.2-11.27,29.95-30.48,32.31c0.63,0.98,0.81,1.62,1.11,1.68
			c21.48,4.31,26.79,8.69,28.94,30.37c1.35,13.59,0.62,27.75-1.67,41.23c-3.07,18.07-13.31,26.64-34.52,27.85
			c-24.72,1.41-49.58,0.33-74.98,0.33C71.29,604.83,71.29,541.48,71.29,478.61z M115.3,583.11c0,19.28,0,38.64,0,57.89
			c14.33,2.86,22-2.39,22.97-15.87c0.58-8.02,0.65-16.13,0.27-24.17C137.78,585.2,131.88,580.72,115.3,583.11z M114.78,529.4
			c0,6.79-0.28,13.59,0.18,20.35c0.13,1.92,2.1,4.93,3.73,5.33c10.53,2.55,18.29-2.85,19.43-13.65c0.71-6.72,0.75-13.56,0.43-20.32
			c-0.56-11.98-5.85-16.72-17.77-17.15c-4.36-0.16-6.19,1.42-6.05,5.86C114.93,516.34,114.78,522.88,114.78,529.4z"/>
		<path class="st0" d="M274.83,601.3c0-9.99,0-18.76,0-28.11c20.12,0,39.86,0,60.27,0c0,31.33,0,62.78,0,94.9
			c-8.03,0-16.24,0-24.97,0c-0.87-2.1-1.9-4.6-3.06-7.43c-15.94,12.2-33.58,14.17-52.31,11.03c-13.24-2.22-22.94-9.17-26.97-21.99
			c-2.63-8.34-4.51-17.28-4.65-25.98c-0.53-32.92-0.34-65.86-0.18-98.79c0.15-30.85,18.66-50.02,49.4-51
			c8.56-0.27,17.33-0.11,25.71,1.43c22.75,4.17,34.8,17.08,37.26,40.04c1.05,9.76,0.17,19.73,0.17,30.55c-7.35,0-14.32,0-21.29,0
			c-7.03,0-14.07,0-22.51,0c0-5.71,0.15-11.06-0.04-16.4c-0.2-5.47-0.41-10.97-1.22-16.37c-0.89-5.97-5.05-9.1-10.89-9.35
			c-5.56-0.24-9.58,2.61-11.18,7.99c-0.88,2.95-1.31,6.15-1.32,9.24c-0.09,34.76-0.1,69.52-0.03,104.28
			c0.02,11.58,3.77,16.56,11.85,16.8c6.54,0.19,10.89-2.85,11.54-9.17c0.93-9.06,1.11-18.22,1-27.33c-0.02-1.46-2.98-3.78-4.88-4.15
			C283.04,600.81,279.32,601.3,274.83,601.3z"/>
		<path class="st0" d="M445.94,595.15c15.61,0,29.7,0,44.81,0c0.09,18.16,2.39,36.4-5.98,53.58c-4.82,9.9-12.81,16.35-23.15,19.86
			c-15.74,5.34-31.77,6.02-47.84,1.93c-21.22-5.4-34.76-20.69-35.24-42.5c-0.8-36.33-0.85-72.71-0.02-109.04
			c0.53-23.36,14.68-38.99,37.64-43.62c14.99-3.02,30.13-2.75,44.99,1.51c16.31,4.67,25.67,15.9,28.1,32.24
			c1.72,11.55,1.64,23.37,2.45,36.39c-8.3,0-15.52,0-22.74,0c-7.29,0-14.58,0-23.07,0c0-9.36,0.05-18.12-0.01-26.87
			c-0.06-9.36-4.12-14.6-11.38-14.88c-7.41-0.28-12.33,5.3-12.36,14.95c-0.13,36.36-0.13,72.71,0,109.07
			c0.03,9.49,4.36,14.37,11.83,14.41c7.77,0.04,11.58-4.11,11.9-14.08C446.2,617.43,445.94,606.75,445.94,595.15z"/>
		<path class="st0" d="M46.3,217.52c3.39,0,6.19,0,9.7,0c0,152.23,0,304.18,0,456.62c-3.05,0-6.08,0-9.7,0
			C46.3,522.33,46.3,370.34,46.3,217.52z"/>
		<path class="st0" d="M209.8,674.46c-3.5,0-6.36,0-9.81,0c0-152.15,0-304.16,0-456.7c3.1,0,6.1,0,9.81,0
			C209.8,369.79,209.8,521.75,209.8,674.46z"/>
		<path class="st0" d="M361.85,674.41c-3.58,0-6.42,0-9.89,0c0-152.2,0-304.18,0-456.68c3.27,0,6.28,0,9.89,0
			C361.85,369.85,361.85,521.83,361.85,674.41z"/>
		<path class="st0" d="M507.38,217.53c3.52,0,6.33,0,9.79,0c0,152.22,0,304.2,0,456.64c-3.06,0-6.08,0-9.79,0
			C507.38,522.31,507.38,370.32,507.38,217.53z"/>
	</g>
</g>
</svg>
