<?xml version="1.0" encoding="utf-8"?>
<!-- Generator: Adobe Illustrator 26.1.0, SVG Export Plug-In . SVG Version: 6.00 Build 0)  -->
<svg version="1.1" id="Layer_1" xmlns="http://www.w3.org/2000/svg" xmlns:xlink="http://www.w3.org/1999/xlink" x="0px" y="0px"
	 viewBox="0 0 576 576" style="enable-background:new 0 0 576 576;" xml:space="preserve">
<style type="text/css">
	.st0{fill:#004987;}
	.st1{fill:#FFFFFF;}
</style>
<rect class="st0" width="576" height="576"/>
<g>
	<g>
		<path class="st1" d="M184.8,431.3c14.9,1.4,14.7-7.5,14.7-20.5c0-17.7-3-17.9-14.7-17.9V431.3z M184.8,374.9
			c8.7-0.5,14.7,2.5,14.7-16.3c0-12.3-1-17.4-14.7-16.5V374.9z M157,324.2h28.1c23.6,0,42.1,0.4,42.1,30.4
			c0,13.9-3.8,26.3-19.7,27.9v1.2c17.7,0,19.7,13.7,19.7,29.8c0,34.4-12.7,35.6-42.1,35.6H157V324.2z"/>
		<path class="st1" d="M303.7,442.8c-3,3.5-7,5.8-11.4,7c-4.2,1.4-8.7,1.8-12.7,1.8c-18.2,0-28.4-7.9-28.4-36.5v-56.9
			c0-28.6,16.7-36.5,35.1-36.5c22.4,0,34.9,9.5,35.3,34.1l-0.2,13.2h-27.7v-17.4c0-5.1-1.5-9.8-7.4-9.8s-7.4,4.7-7.4,9.8v70.2
			c0,5.1,1.3,9.8,7.4,9.8c5.8,0,7.4-4.7,7.4-9.8v-16.7h-10.5v-19h38.3v63h-16.2L303.7,442.8z"/>
		<path class="st1" d="M415.7,400.5V417c0,23.3-11.9,34.6-35.3,34.6c-18.4,0-34.9-7.9-34.9-36.5v-56.9c0-28.6,16.5-36.5,34.9-36.5
			c20.2,0,35.3,6.3,35.3,33.4v13.7H388v-17.2c0-5.1-1.5-9.8-7.5-9.8c-5.7,0-7.2,4.7-7.2,9.8v70.2c0,5.1,1.5,9.8,7.2,9.8
			c6,0,7.5-4.7,7.5-9.8l0.2-21.2H415.7z"/>
	</g>
	<rect x="141.9" y="123.8" class="st1" width="7.2" height="325.8"/>
	<rect x="236.5" y="123.8" class="st1" width="7.2" height="325.8"/>
	<rect x="330.1" y="123.8" class="st1" width="7.2" height="325.8"/>
	<rect x="425.9" y="123.8" class="st1" width="7.2" height="325.8"/>
</g>
</svg>
